<?xml version="1.0" encoding="UTF-8" standalone="no"?>
<svg
   inkscape:export-ydpi="96"
   inkscape:export-xdpi="96"
   inkscape:export-filename="PackageIcon.png"
   viewBox="0 0 512 512"
   x="0px"
   y="0px"
   version="1.1"
   id="svg16"
   sodipodi:docname="PolyKit.svg"
   width="512"
   height="512"
   inkscape:version="1.2 (dc2aedaf03, 2022-05-15)"
   xmlns:inkscape="http://www.inkscape.org/namespaces/inkscape"
   xmlns:sodipodi="http://sodipodi.sourceforge.net/DTD/sodipodi-0.dtd"
   xmlns:xlink="http://www.w3.org/1999/xlink"
   xmlns="http://www.w3.org/2000/svg"
   xmlns:svg="http://www.w3.org/2000/svg"
   xmlns:rdf="http://www.w3.org/1999/02/22-rdf-syntax-ns#"
   xmlns:cc="http://creativecommons.org/ns#"
   xmlns:dc="http://purl.org/dc/elements/1.1/">
  <metadata
     id="metadata22">
    <rdf:RDF>
      <cc:Work
         rdf:about="">
        <dc:format>image/svg+xml</dc:format>
        <dc:type
           rdf:resource="http://purl.org/dc/dcmitype/StillImage" />
      </cc:Work>
    </rdf:RDF>
  </metadata>
  <defs
     id="defs20">
    <linearGradient
       inkscape:collect="always"
       id="linearGradient1184">
      <stop
         style="stop-color:#ffffff;stop-opacity:1;"
         offset="0"
         id="stop1180" />
      <stop
         style="stop-color:#ffcc66;stop-opacity:1;"
         offset="1"
         id="stop1182" />
    </linearGradient>
    <linearGradient
       inkscape:collect="always"
       xlink:href="#linearGradient1184"
       id="linearGradient1186"
       x1="97.975022"
       y1="167.0151"
       x2="199.44969"
       y2="342.77438"
       gradientUnits="userSpaceOnUse" />
  </defs>
  <sodipodi:namedview
     inkscape:current-layer="svg16"
     inkscape:window-maximized="1"
     inkscape:window-y="-8"
     inkscape:window-x="-8"
     inkscape:cy="256.00001"
     inkscape:cx="236.17212"
     inkscape:zoom="2.2695312"
     inkscape:snap-page="false"
     inkscape:bbox-nodes="true"
     inkscape:snap-bbox="true"
     fit-margin-bottom="1"
     fit-margin-right="0"
     fit-margin-left="1"
     fit-margin-top="1"
     showgrid="true"
     id="namedview18"
     inkscape:window-height="1377"
     inkscape:window-width="2560"
     inkscape:pageshadow="2"
     inkscape:pageopacity="0"
     guidetolerance="10"
     gridtolerance="10"
     objecttolerance="10"
     borderopacity="1"
     inkscape:document-rotation="0"
     bordercolor="#666666"
     pagecolor="#ffffff"
     inkscape:pagecheckerboard="true"
     width="512px"
     inkscape:snap-global="true"
     inkscape:object-nodes="false"
     inkscape:snap-nodes="false"
     inkscape:snap-others="false"
     inkscape:snap-grids="true"
     inkscape:snap-to-guides="false"
     inkscape:showpageshadow="2"
     inkscape:deskcolor="#d1d1d1">
    <inkscape:grid
       originy="0"
       originx="0"
       id="grid850"
       type="xygrid"
       spacingx="8"
       spacingy="8"
       empspacing="4" />
  </sodipodi:namedview>
  <g
     id="g2090"
     transform="matrix(-0.9825346,0,0,0.9825346,507.52886,0.55889287)">
    <path
       style="fill:none;fill-opacity:1;stroke:#ffcc66;stroke-width:8;stroke-dasharray:none;stroke-opacity:1"
       d="m 93.96309,135.48924 166.7596,-96.278693 c 11.51434,-6.647815 26.23196,-2.70424 32.87978,8.810104 l 40.11612,69.483169 c 24.67485,42.73811 20.15346,94.3282 -7.36714,131.65777 l 5.0074,8.67309 c 3.19314,5.53069 4.05784,12.10016 2.40106,18.26385 -0.40249,1.50208 -0.94606,2.95324 -1.62051,4.33525 39.48197,45.6337 82.636,105.83598 90.41164,119.3038 15.49676,26.84115 6.28422,61.22274 -20.55691,76.7195 -26.84115,15.49674 -61.22276,6.28422 -76.71951,-20.55694 -7.77428,-13.46543 -38.33914,-80.94031 -58.11427,-137.95067 -1.53409,-0.10684 -3.06262,-0.36176 -4.56471,-0.76424 -6.16641,-1.6466 -11.42318,-5.68043 -14.61642,-11.2113 l -5.00741,-8.67309 c -46.08683,5.17197 -93.02677,-16.70905 -117.70255,-59.44873 L 85.152986,168.36903 c -6.647815,-11.51434 -2.70424,-26.23197 8.810104,-32.87979 z"
       id="path1140"
       sodipodi:nodetypes="ccsscsccsssccscccc" />
    <path
       style="fill:#000000;fill-opacity:1;stroke:none;stroke-width:0;stroke-dasharray:none"
       d="m 85.152986,168.36903 c -6.647815,-11.51434 -2.70424,-26.23197 8.810104,-32.87979 l 166.7596,-96.278693 c 11.51434,-6.647815 26.23196,-2.70424 32.87978,8.810104 l 40.11612,69.483169 c 24.67485,42.73811 20.15346,94.3282 -7.36714,131.65777 l 5.0074,8.67309 c 3.19314,5.53069 4.05784,12.10016 2.40106,18.26385 -0.40249,1.50208 -0.94606,2.95324 -1.62051,4.33525 39.48197,45.6337 82.636,105.83598 90.41164,119.3038 15.49676,26.84115 6.28422,61.22274 -20.55691,76.7195 -26.84115,15.49674 -61.22276,6.28422 -76.71951,-20.55694 -7.77428,-13.46543 -38.33914,-80.94031 -58.11427,-137.95067 -1.53409,-0.10684 -3.06262,-0.36176 -4.56471,-0.76424 -6.16641,-1.6466 -11.42318,-5.68043 -14.61642,-11.2113 l -5.00741,-8.67309 c -46.08683,5.17197 -93.02677,-16.70905 -117.70255,-59.44873"
       id="path54" />
    <path
       style="fill:#663300;fill-opacity:1;stroke:none;stroke-width:0;stroke-dasharray:none"
       d="m 313.44969,258.90799 -55.58653,32.0929 4.0116,6.94833 c 1.0638,1.84252 2.81538,3.19288 4.87167,3.73861 2.05352,0.55594 4.24573,0.26187 6.08825,-0.80191 l 41.68992,-24.06968 c 1.84252,-1.06378 3.19287,-2.81536 3.73861,-4.87165 0.55594,-2.05354 0.26188,-4.24576 -0.80192,-6.08828 z"
       id="path452" />
    <path
       style="fill:#996600;fill-opacity:1;stroke:none;stroke-width:0;stroke-dasharray:none;stroke-opacity:1"
       d="m 320.72696,291.76414 -38.04819,21.96714 c 19.37803,55.62709 48.9222,121.03369 56.49154,134.14419 11.07113,19.17575 35.62387,25.75466 54.79964,14.68351 19.17576,-11.07113 25.75466,-35.62389 14.68351,-54.79964 -7.57025,-13.11208 -49.44077,-71.39993 -87.9265,-115.9952 z"
       id="path450" />
    <path
       style="fill:url(#linearGradient1186);fill-opacity:1;stroke:none;stroke-width:0;stroke-dasharray:none"
       d="m 139.1659,229.82888 c 21.68242,37.55505 63.18873,56.52217 103.66394,51.32265 l 69.60702,-40.18763 -1.6e-4,9e-5 c 24.73972,-32.45234 29.06767,-77.88189 7.38525,-115.43694 L 279.70584,56.043885 c -2.21355,-3.833963 -7.12597,-5.150249 -10.95994,-2.936711 L 101.98631,149.38588 c -3.833949,2.21353 -5.150235,7.12597 -2.936697,10.95993"
       id="path448" />
  </g>
</svg>
