<?xml version="1.0" encoding="UTF-8" standalone="no"?>
<svg
   inkscape:version="1.2 (dc2aedaf03, 2022-05-15)"
   height="640"
   width="1280"
   sodipodi:docname="PolyKit-SocialCard.svg"
   id="svg16"
   version="1.1"
   y="0px"
   x="0px"
   viewBox="0 0 1280 640"
   inkscape:export-filename="SocialCard.png"
   inkscape:export-xdpi="96"
   inkscape:export-ydpi="96"
   xmlns:inkscape="http://www.inkscape.org/namespaces/inkscape"
   xmlns:sodipodi="http://sodipodi.sourceforge.net/DTD/sodipodi-0.dtd"
   xmlns:xlink="http://www.w3.org/1999/xlink"
   xmlns="http://www.w3.org/2000/svg"
   xmlns:svg="http://www.w3.org/2000/svg"
   xmlns:rdf="http://www.w3.org/1999/02/22-rdf-syntax-ns#"
   xmlns:cc="http://creativecommons.org/ns#"
   xmlns:dc="http://purl.org/dc/elements/1.1/">
  <metadata
     id="metadata22">
    <rdf:RDF>
      <cc:Work
         rdf:about="">
        <dc:format>image/svg+xml</dc:format>
        <dc:type
           rdf:resource="http://purl.org/dc/dcmitype/StillImage" />
        <dc:title />
      </cc:Work>
    </rdf:RDF>
  </metadata>
  <defs
     id="defs20">
    <linearGradient
       inkscape:collect="always"
       xlink:href="#linearGradient1184"
       id="linearGradient1186"
       x1="97.975021"
       y1="167.01511"
       x2="199.44969"
       y2="342.77438"
       gradientUnits="userSpaceOnUse"
       gradientTransform="matrix(-0.31581469,0,0,0.31581469,145.08176,-2.1060708)" />
    <linearGradient
       inkscape:collect="always"
       id="linearGradient1184">
      <stop
         style="stop-color:#ffffff;stop-opacity:1;"
         offset="0"
         id="stop1180" />
      <stop
         style="stop-color:#ffcc66;stop-opacity:1;"
         offset="1"
         id="stop1182" />
    </linearGradient>
  </defs>
  <sodipodi:namedview
     inkscape:bbox-paths="false"
     inkscape:snap-nodes="false"
     inkscape:snap-global="true"
     borderlayer="true"
     width="1280mm"
     units="px"
     inkscape:current-layer="svg16"
     inkscape:window-maximized="1"
     inkscape:window-y="-8"
     inkscape:window-x="-8"
     inkscape:cy="319.84103"
     inkscape:cx="629.19026"
     inkscape:zoom="1.5726563"
     inkscape:snap-page="true"
     inkscape:bbox-nodes="true"
     inkscape:snap-bbox="true"
     fit-margin-bottom="1"
     fit-margin-right="0"
     fit-margin-left="1"
     fit-margin-top="1"
     showgrid="true"
     id="namedview18"
     inkscape:window-height="1377"
     inkscape:window-width="2560"
     inkscape:pageshadow="2"
     inkscape:pageopacity="0"
     guidetolerance="10"
     gridtolerance="10"
     objecttolerance="10"
     borderopacity="1"
     inkscape:document-rotation="0"
     bordercolor="#666666"
     pagecolor="#ffffff"
     inkscape:pagecheckerboard="0"
     inkscape:snap-grids="true"
     inkscape:showpageshadow="2"
     inkscape:deskcolor="#d1d1d1">
    <sodipodi:guide
       id="guide877"
       orientation="0,4837.7953"
       position="160,2338.8976"
       inkscape:locked="false" />
    <sodipodi:guide
       id="guide879"
       orientation="2418.8976,0"
       position="1200,672"
       inkscape:locked="false" />
    <sodipodi:guide
       id="guide881"
       orientation="0,-4837.7953"
       position="1224,80"
       inkscape:locked="false" />
    <sodipodi:guide
       id="guide883"
       orientation="-2418.8976,0"
       position="80,645.3441"
       inkscape:locked="false" />
    <inkscape:grid
       spacingy="8"
       spacingx="8"
       id="grid885"
       type="xygrid" />
  </sodipodi:namedview>
  <rect
     ry="0"
     y="0"
     x="0"
     height="640"
     width="1280"
     id="rect855"
     style="fill:#ffffee;fill-opacity:1;stroke:none;stroke-width:0;stroke-linejoin:round;stroke-miterlimit:4;stroke-dasharray:none" />
  <text
     xml:space="preserve"
     style="font-style:normal;font-variant:normal;font-weight:600;font-stretch:normal;font-size:69.7619px;line-height:1.25;font-family:Repo;-inkscape-font-specification:'Repo, Semi-Bold';font-variant-ligatures:normal;font-variant-caps:normal;font-variant-numeric:normal;font-variant-east-asian:normal;letter-spacing:0px;word-spacing:0px;fill:#996600;fill-opacity:1;stroke:#ffffcc;stroke-width:5.31553;stroke-miterlimit:4;stroke-dasharray:none;stroke-opacity:1;paint-order:stroke fill markers"
     x="439.23944"
     y="377.69992"
     id="text839"><tspan
       sodipodi:role="line"
       id="tspan608"
       x="439.23944"
       y="377.69992"
       style="stroke-width:5.31553">.NET polyfills, your way</tspan></text>
  <text
     id="text835-8-9"
     y="551.9494"
     x="216.998"
     style="font-style:normal;font-variant:normal;font-weight:bold;font-stretch:normal;font-size:39.2563px;line-height:1.25;font-family:'Courier Prime';-inkscape-font-specification:'Courier Prime, Bold';font-variant-ligatures:normal;font-variant-caps:normal;font-variant-numeric:normal;font-variant-east-asian:normal;letter-spacing:0px;word-spacing:0px;fill:#331524;fill-opacity:1;stroke:none;stroke-width:0.464583"
     xml:space="preserve"><tspan
       sodipodi:role="line"
       id="tspan610"
       x="216.998"
       y="551.9494">https://github.com/Buildvana/PolyKit</tspan></text>
  <g
     id="g3205"
     transform="matrix(3.0586917,0,0,3.0586917,55.530449,15.530473)">
    <path
       style="fill:none;fill-opacity:1;stroke:#ffcc66;stroke-width:2.52652;stroke-dasharray:none;stroke-opacity:1"
       d="M 115.40684,40.683422 62.741704,10.277196 C 59.105307,8.1777183 54.457266,9.4231572 52.357787,13.059556 l -12.66926,21.943806 c -7.79268,13.497323 -6.364759,29.790231 2.326651,41.579458 l -1.58141,2.739089 c -1.008441,1.746673 -1.281526,3.821408 -0.758291,5.767992 0.127113,0.474379 0.29878,0.932676 0.511781,1.369135 -12.468986,14.411794 -26.097662,33.424554 -28.553324,37.677894 -4.8941042,8.47683 -1.9846487,19.33504 6.492174,24.22914 8.47683,4.8941 19.335047,1.98465 24.229149,-6.49218 2.455232,-4.25258 12.108063,-25.56214 18.35334,-43.566847 0.484488,-0.03374 0.96722,-0.11425 1.441602,-0.241359 1.947443,-0.52002 3.607608,-1.793963 4.616081,-3.540693 l 1.581413,-2.739089 C 82.902591,93.419286 97.726914,86.508938 105.51989,73.01112 L 118.1892,51.067342 c 2.09947,-3.636398 0.85403,-8.284441 -2.78236,-10.38392 z"
       id="path1140"
       sodipodi:nodetypes="ccsscsccsssccscccc" />
    <path
       style="fill:#000000;fill-opacity:1;stroke:none;stroke-width:0;stroke-dasharray:none"
       d="m 118.1892,51.067342 c 2.09947,-3.636398 0.85403,-8.284441 -2.78236,-10.38392 L 62.741704,10.277196 C 59.105307,8.1777183 54.457266,9.4231572 52.357787,13.059556 l -12.66926,21.943806 c -7.79268,13.497323 -6.364759,29.790231 2.326651,41.579458 l -1.58141,2.739089 c -1.008441,1.746673 -1.281526,3.821408 -0.758291,5.767992 0.127113,0.474379 0.29878,0.932676 0.511781,1.369135 -12.468986,14.411794 -26.097662,33.424554 -28.553324,37.677894 -4.8941042,8.47683 -1.9846487,19.33504 6.492174,24.22914 8.47683,4.8941 19.335047,1.98465 24.229149,-6.49218 2.455232,-4.25258 12.108063,-25.56214 18.35334,-43.566847 0.484488,-0.03374 0.96722,-0.11425 1.441602,-0.241359 1.947443,-0.52002 3.607608,-1.793963 4.616081,-3.540693 l 1.581413,-2.739089 C 82.902591,93.419286 97.726914,86.508938 105.51989,73.01112"
       id="path54" />
    <path
       style="fill:#663300;fill-opacity:1;stroke:none;stroke-width:0;stroke-dasharray:none"
       d="m 46.089743,79.660876 17.555043,10.135409 -1.266922,2.194385 c -0.335964,0.581895 -0.889139,1.008358 -1.538545,1.180708 -0.648532,0.175574 -1.340864,0.0827 -1.922759,-0.253255 L 45.750271,85.316564 c -0.581895,-0.335957 -1.008355,-0.889132 -1.180708,-1.538538 -0.175574,-0.648539 -0.08271,-1.340874 0.253258,-1.922769 z"
       id="path452" />
    <path
       style="fill:#996600;fill-opacity:1;stroke:none;stroke-width:0;stroke-dasharray:none;stroke-opacity:1"
       d="m 43.791475,90.037331 12.016177,6.937545 c -6.119867,17.567854 -15.45035,38.224214 -17.840858,42.364704 -3.496426,6.05599 -11.250542,8.1337 -17.306532,4.63727 -6.055986,-3.49643 -8.1337,-11.25055 -4.637268,-17.30653 2.390796,-4.14099 15.614122,-22.54915 27.768481,-36.632989 z"
       id="path450" />
    <path
       style="fill:url(#linearGradient1186);fill-opacity:1;stroke:none;stroke-width:0;stroke-dasharray:none"
       d="M 101.13112,70.477266 C 94.283498,82.337702 81.175195,88.327797 68.392529,86.685712 L 46.40961,73.993869 l 5e-5,2.8e-5 C 38.596493,63.744971 37.229663,49.397652 44.07729,37.537216 L 56.746547,15.593411 c 0.699071,-1.210821 2.250486,-1.626524 3.46131,-0.927456 l 52.665133,30.40623 c 1.21081,0.699065 1.62651,2.250486 0.92745,3.461306"
       id="path448" />
  </g>
  <text
     id="text851"
     y="223.17189"
     x="433.62567"
     style="font-style:normal;font-variant:normal;font-weight:bold;font-stretch:normal;font-size:224.05px;line-height:1.25;font-family:Repo;-inkscape-font-specification:'Repo, Bold';font-variant-ligatures:normal;font-variant-caps:normal;font-variant-numeric:normal;font-variant-east-asian:normal;letter-spacing:0px;word-spacing:0px;fill:#cc6600;fill-opacity:1;stroke:#ffffcc;stroke-width:16.8259;stroke-miterlimit:4;stroke-dasharray:none;stroke-opacity:1;paint-order:stroke markers fill"
     xml:space="preserve"><tspan
       sodipodi:role="line"
       id="tspan606"
       x="433.62567"
       y="223.17189"
       style="stroke-width:16.8259">PolyKit</tspan></text>
</svg>
