<?xml version="1.0" encoding="UTF-8" standalone="no"?>
<svg
   inkscape:export-ydpi="96"
   inkscape:export-xdpi="96"
   inkscape:export-filename="PackageIcon.png"
   viewBox="0 0 512 512"
   x="0px"
   y="0px"
   version="1.1"
   id="svg16"
   sodipodi:docname="SquareLogo.svg"
   width="512"
   height="512"
   inkscape:version="1.2.1 (9c6d41e410, 2022-07-14)"
   xmlns:inkscape="http://www.inkscape.org/namespaces/inkscape"
   xmlns:sodipodi="http://sodipodi.sourceforge.net/DTD/sodipodi-0.dtd"
   xmlns:xlink="http://www.w3.org/1999/xlink"
   xmlns="http://www.w3.org/2000/svg"
   xmlns:svg="http://www.w3.org/2000/svg"
   xmlns:rdf="http://www.w3.org/1999/02/22-rdf-syntax-ns#"
   xmlns:cc="http://creativecommons.org/ns#"
   xmlns:dc="http://purl.org/dc/elements/1.1/">
  <metadata
     id="metadata22">
    <rdf:RDF>
      <cc:Work
         rdf:about="">
        <dc:format>image/svg+xml</dc:format>
        <dc:type
           rdf:resource="http://purl.org/dc/dcmitype/StillImage" />
      </cc:Work>
    </rdf:RDF>
  </metadata>
  <defs
     id="defs20">
    <linearGradient
       inkscape:collect="always"
       id="linearGradient1184">
      <stop
         style="stop-color:#ffffff;stop-opacity:1;"
         offset="0"
         id="stop1180" />
      <stop
         style="stop-color:#ffcc66;stop-opacity:1;"
         offset="1"
         id="stop1182" />
    </linearGradient>
    <linearGradient
       inkscape:collect="always"
       xlink:href="#linearGradient1184"
       id="linearGradient1186"
       x1="97.975022"
       y1="167.0151"
       x2="199.44969"
       y2="342.77438"
       gradientUnits="userSpaceOnUse" />
  </defs>
  <sodipodi:namedview
     inkscape:current-layer="svg16"
     inkscape:window-maximized="1"
     inkscape:window-y="-8"
     inkscape:window-x="-8"
     inkscape:cy="256.00001"
     inkscape:cx="207.53185"
     inkscape:zoom="2.2695312"
     inkscape:snap-page="false"
     inkscape:bbox-nodes="true"
     inkscape:snap-bbox="true"
     fit-margin-bottom="1"
     fit-margin-right="0"
     fit-margin-left="1"
     fit-margin-top="1"
     showgrid="true"
     id="namedview18"
     inkscape:window-height="1377"
     inkscape:window-width="2560"
     inkscape:pageshadow="2"
     inkscape:pageopacity="0"
     guidetolerance="10"
     gridtolerance="10"
     objecttolerance="10"
     borderopacity="1"
     inkscape:document-rotation="0"
     bordercolor="#666666"
     pagecolor="#ffffff"
     inkscape:pagecheckerboard="true"
     width="512px"
     inkscape:snap-global="true"
     inkscape:object-nodes="false"
     inkscape:snap-nodes="false"
     inkscape:snap-others="false"
     inkscape:snap-grids="true"
     inkscape:snap-to-guides="false"
     inkscape:showpageshadow="2"
     inkscape:deskcolor="#d1d1d1">
    <inkscape:grid
       originy="0"
       originx="0"
       id="grid850"
       type="xygrid"
       spacingx="8"
       spacingy="8"
       empspacing="4" />
  </sodipodi:namedview>
  <path
     id="rect850"
     style="fill:#eeffee;stroke-width:0;paint-order:stroke fill markers"
     d="m 128,0 h 256 c 70.912,0 128,57.088 128,128 v 256 c 0,70.912 -57.088,128 -128,128 H 128 C 57.088,512 0,454.912 0,384 V 128 C 0,57.088 57.088,0 128,0 Z" />
  <g
     id="g4862"
     transform="matrix(1.0177749,0,0,1.0177749,-4.5513193,-4.5496414)">
    <path
       style="fill:#000000;fill-opacity:1;stroke:none;stroke-width:0;stroke-dasharray:none"
       d="m 423.863,165.987 c 6.532,-11.313 2.657,-25.773 -8.656,-32.305 L 251.36,39.0846 c -11.313,-6.5317 -25.774,-2.657 -32.306,8.6563 l -39.415,68.2701 c -24.244,41.991 -19.802,92.68 7.238,129.358 l -4.92,8.521 c -3.137,5.435 -3.987,11.889 -2.359,17.945 0.396,1.476 0.93,2.902 1.592,4.26 -38.792,44.837 -81.1923,103.987 -88.8322,117.22 -15.2261,26.372 -6.1745,60.154 20.1982,75.38 26.372,15.226 60.153,6.174 75.379,-20.198 7.639,-13.231 37.67,-79.527 57.1,-135.542 1.507,-0.105 3.009,-0.355 4.485,-0.751 6.058,-1.617 11.223,-5.581 14.361,-11.015 l 4.92,-8.522 c 45.282,5.082 91.402,-16.417 115.647,-58.41"
       id="path54" />
    <path
       style="fill:#663300;fill-opacity:1;stroke:none;stroke-width:0;stroke-dasharray:none"
       d="m 199.554,254.945 54.615,31.532 -3.941,6.827 c -1.045,1.811 -2.766,3.138 -4.787,3.674 -2.017,0.546 -4.171,0.257 -5.982,-0.788 l -40.961,-23.649 c -1.811,-1.046 -3.138,-2.767 -3.674,-4.787 -0.546,-2.018 -0.257,-4.172 0.788,-5.982 z"
       id="path452" />
    <path
       style="fill:#996600;fill-opacity:1;stroke:none;stroke-width:0;stroke-dasharray:none;stroke-opacity:1"
       d="m 192.404,287.227 37.383,21.584 c -19.039,54.655 -48.068,118.92 -55.505,131.801 -10.877,18.841 -35.001,25.305 -53.842,14.427 -18.841,-10.877 -25.3051,-35.001 -14.427,-53.842 7.438,-12.883 48.577,-70.153 86.391,-113.97 z"
       id="path450" />
    <path
       style="fill:url(#linearGradient1186);fill-opacity:1;stroke:none;stroke-width:0;stroke-dasharray:none"
       d="M 370.794,226.374 C 349.49,263.273 308.708,281.909 268.94,276.8 l -68.391,-39.486 v 0 c -24.308,-31.885 -28.56,-76.521 -7.256,-113.42 l 39.415,-68.27 c 2.175,-3.767 7.002,-5.0603 10.769,-2.8854 l 163.847,94.5974 c 3.767,2.175 5.06,7.001 2.885,10.768"
       id="path448" />
  </g>
</svg>
