<svg viewBox="0 0 512 512" xmlns:xlink="http://www.w3.org/1999/xlink" xmlns="http://www.w3.org/2000/svg"><defs><linearGradient id="a"><stop offset="0" stop-color="#fff"/><stop offset="1" stop-color="#fc6"/></linearGradient><linearGradient xlink:href="#a" id="b" x1="97.98" y1="167.02" x2="199.45" y2="342.77" gradientUnits="userSpaceOnUse"/></defs><rect width="512" height="512" ry="128" fill="#efe" paint-order="stroke fill markers"/><g transform="translate(-4.55 -4.55) scale(1.01777)"><path d="M423.86 165.99a23.65 23.65 0 0 0-8.65-32.3l-163.85-94.6a23.65 23.65 0 0 0-32.3 8.65l-39.42 68.27c-24.24 42-19.8 92.68 7.24 129.36l-4.92 8.52a23.63 23.63 0 0 0-.77 22.2c-38.8 44.84-81.2 104-88.83 117.22a55.21 55.21 0 0 0 20.2 75.38 55.21 55.21 0 0 0 75.38-20.2c7.63-13.22 37.67-79.52 57.1-135.54a23.65 23.65 0 0 0 18.84-11.76l4.92-8.52c45.28 5.08 91.4-16.42 115.65-58.41"/><path d="M199.55 254.94l54.62 31.54-3.94 6.82a7.86 7.86 0 0 1-10.77 2.89l-40.96-23.65a7.87 7.87 0 0 1-2.89-10.77z" fill="#630"/><path d="M192.4 287.23l37.39 21.58c-19.04 54.66-48.07 118.92-55.5 131.8a39.43 39.43 0 0 1-53.85 14.43 39.43 39.43 0 0 1-14.43-53.84c7.44-12.89 48.58-70.16 86.4-113.97z" fill="#960"/><path d="M370.8 226.37a102.51 102.51 0 0 1-101.86 50.43l-68.4-39.49a102.5 102.5 0 0 1-7.25-113.42l39.42-68.27a7.89 7.89 0 0 1 10.77-2.88l163.84 94.6a7.89 7.89 0 0 1 2.89 10.76" fill="url(#b)"/></g></svg>
